<svg xmlns="http://www.w3.org/2000/svg" viewBox="0 0 128 128"><defs><style>.cls-1{isolation:isolate;}.cls-2{mix-blend-mode:multiply;}.cls-3{fill:#191828;stroke:#191828;}.cls-3,.cls-4,.cls-5{stroke-linecap:round;stroke-linejoin:round;}.cls-4{fill:#fcf1e6;stroke:#fcf1e6;}.cls-5{fill:#e27329;stroke:#e27329;}</style></defs><title>sushi</title><g class="cls-1"><g id="icons" class="cls-2"><ellipse class="cls-3" cx="52.5" cy="40.5" rx="24" ry="10"/><ellipse class="cls-3" cx="52.5" cy="40.5" rx="24" ry="10"/><ellipse class="cls-3" cx="52.5" cy="60.5" rx="24" ry="10"/><rect class="cls-3" x="28.5" y="40.5" width="48" height="20"/><path class="cls-4" d="M52.5,48.5c-12.592,0-22-4.224-22-8s9.408-8,22-8,22,4.224,22,8S65.092,48.5,52.5,48.5Z"/><path class="cls-5" d="M52.5,44.5c-7.856,0-13.523-1.668-16.431-3.1a.991.991,0,0,1,0-1.793c2.908-1.435,8.575-3.1,16.431-3.1s13.523,1.668,16.431,3.1a.991.991,0,0,1,0,1.793C66.023,42.832,60.356,44.5,52.5,44.5Z"/><ellipse class="cls-3" cx="36.5" cy="67.5" rx="24" ry="10"/><ellipse class="cls-3" cx="36.5" cy="67.5" rx="24" ry="10"/><ellipse class="cls-3" cx="36.5" cy="87.5" rx="24" ry="10"/><rect class="cls-3" x="12.5" y="67.5" width="48" height="20"/><path class="cls-4" d="M36.5,75.5c-12.592,0-22-4.224-22-8s9.408-8,22-8,22,4.224,22,8S49.092,75.5,36.5,75.5Z"/><path class="cls-5" d="M36.5,71.5c-7.856,0-13.523-1.668-16.431-3.1a.991.991,0,0,1,0-1.793c2.908-1.435,8.575-3.1,16.431-3.1s13.523,1.668,16.431,3.1a.991.991,0,0,1,0,1.793C50.023,69.832,44.356,71.5,36.5,71.5Z"/><ellipse class="cls-3" cx="91.5" cy="57.5" rx="24" ry="10"/><ellipse class="cls-3" cx="91.5" cy="57.5" rx="24" ry="10"/><ellipse class="cls-3" cx="91.5" cy="77.5" rx="24" ry="10"/><rect class="cls-3" x="67.5" y="57.5" width="48" height="20"/><path class="cls-4" d="M91.5,65.5c-12.592,0-22-4.224-22-8s9.408-8,22-8,22,4.224,22,8S104.092,65.5,91.5,65.5Z"/><path class="cls-5" d="M91.5,61.5c-7.856,0-13.523-1.668-16.431-3.1a.991.991,0,0,1,0-1.793c2.908-1.435,8.575-3.1,16.431-3.1s13.523,1.668,16.431,3.1a.991.991,0,0,1,0,1.793C105.023,59.832,99.356,61.5,91.5,61.5Z"/></g></g></svg>